<svg width="15" height="14" viewBox="0 0 15 14" fill="none" xmlns="http://www.w3.org/2000/svg">
<path d="M7.4502 5.44271H8.7002V3.72396H10.5752V2.57812H8.7002V0.859375H7.4502V2.57812H5.5752V3.72396H7.4502V5.44271ZM4.9502 10.599C4.2627 10.599 3.70645 11.1146 3.70645 11.7448C3.70645 12.375 4.2627 12.8906 4.9502 12.8906C5.6377 12.8906 6.2002 12.375 6.2002 11.7448C6.2002 11.1146 5.6377 10.599 4.9502 10.599ZM11.2002 10.599C10.5127 10.599 9.95645 11.1146 9.95645 11.7448C9.95645 12.375 10.5127 12.8906 11.2002 12.8906C11.8877 12.8906 12.4502 12.375 12.4502 11.7448C12.4502 11.1146 11.8877 10.599 11.2002 10.599ZM5.6377 7.73438H10.2939C10.7627 7.73438 11.1752 7.49948 11.3877 7.14427L13.8002 3.12813L12.7127 2.57812L10.2939 6.58854H5.90645L3.24395 1.43229H1.2002V2.57812H2.4502L4.7002 6.92656L3.85645 8.32448C3.4002 9.09219 4.0002 10.026 4.9502 10.026H12.4502V8.88021H4.9502L5.6377 7.73438Z" fill="#CDAC01"/>
</svg>
