<svg width="50" height="51" viewBox="0 0 50 51" fill="none" xmlns="http://www.w3.org/2000/svg">
<path d="M25 45.6754C27.2917 45.6754 29.1667 43.8004 29.1667 41.5087H20.8334C20.8334 43.8004 22.7084 45.6754 25 45.6754ZM37.5 33.1754V22.7587C37.5 16.3629 34.1042 11.0087 28.125 9.59208V8.17542C28.125 6.44625 26.7292 5.05042 25 5.05042C23.2709 5.05042 21.875 6.44625 21.875 8.17542V9.59208C15.9167 11.0087 12.5 16.3421 12.5 22.7587V33.1754L8.33337 37.3421V39.4254H41.6667V37.3421L37.5 33.1754ZM33.3334 35.2587H16.6667V22.7587C16.6667 17.5921 19.8125 13.3837 25 13.3837C30.1875 13.3837 33.3334 17.5921 33.3334 22.7587V35.2587Z" fill="#CDAC01"/>
</svg>
