<svg width="50" height="51" viewBox="0 0 50 51" fill="none" xmlns="http://www.w3.org/2000/svg">
<path d="M36.4688 8.2728C32.4062 8.2728 28.0312 9.09829 25.0104 11.3684C21.9896 9.09829 17.6146 8.2728 13.5521 8.2728C10.5312 8.2728 7.32292 8.72682 4.63542 9.90315C3.11458 10.5842 2.09375 12.0494 2.09375 13.7211V37.0001C2.09375 39.6829 4.63542 41.6641 7.26042 41.0037C9.30208 40.4878 11.4688 40.2608 13.5521 40.2608C16.8021 40.2608 20.2604 40.7974 23.0521 42.1594C24.3021 42.7785 25.7188 42.7785 26.9479 42.1594C29.7396 40.7767 33.1979 40.2608 36.4479 40.2608C38.5312 40.2608 40.6979 40.4878 42.7396 41.0037C45.3646 41.6848 47.9062 39.7036 47.9062 37.0001V13.7211C47.9062 12.0494 46.8854 10.5842 45.3646 9.90315C42.6979 8.72682 39.4896 8.2728 36.4688 8.2728ZM43.7604 34.5442C43.7604 35.8444 42.5521 36.7937 41.2604 36.5667C39.6979 36.2778 38.0729 36.1539 36.4688 36.1539C32.9271 36.1539 27.8229 37.4954 25.0104 39.2495V15.4959C27.8229 13.7417 32.9271 12.4003 36.4688 12.4003C38.3854 12.4003 40.2812 12.586 42.0938 12.9781C43.0521 13.1845 43.7604 14.0306 43.7604 15.0006V34.5442Z" fill="#CDAC01"/>
<path d="M29.1354 21.7078C28.4687 21.7078 27.8646 21.295 27.6562 20.6346C27.3854 19.8297 27.8438 18.9423 28.6562 18.6947C31.8646 17.6628 36.0104 17.3326 39.8229 17.766C40.6771 17.8692 41.3021 18.6328 41.1979 19.4789C41.0938 20.325 40.3229 20.9442 39.4688 20.841C36.0938 20.4489 32.4062 20.7584 29.6146 21.6458C29.4479 21.6665 29.2812 21.7078 29.1354 21.7078Z" fill="#CDAC01"/>
<path d="M29.1354 27.1973C28.4687 27.1973 27.8646 26.7846 27.6562 26.1242C27.3854 25.3193 27.8438 24.4319 28.6562 24.1842C31.8437 23.1524 36.0104 22.8222 39.8229 23.2556C40.6771 23.3587 41.3021 24.1223 41.1979 24.9685C41.0938 25.8146 40.3229 26.4337 39.4688 26.3305C36.0938 25.9384 32.4062 26.248 29.6146 27.1354C29.4479 27.1767 29.2812 27.1973 29.1354 27.1973Z" fill="#CDAC01"/>
<path d="M29.1354 32.6869C28.4687 32.6869 27.8646 32.2741 27.6562 31.6137C27.3854 30.8088 27.8438 29.9214 28.6562 29.6738C31.8437 28.6419 36.0104 28.3117 39.8229 28.7451C40.6771 28.8483 41.3021 29.6119 41.1979 30.458C41.0938 31.3041 40.3229 31.9026 39.4688 31.8201C36.0938 31.428 32.4062 31.7375 29.6146 32.6249C29.4479 32.6662 29.2812 32.6869 29.1354 32.6869Z" fill="#CDAC01"/>
</svg>
