<svg width="50" height="50" viewBox="0 0 50 50" fill="none" xmlns="http://www.w3.org/2000/svg">
<path d="M34.4712 27.0418C36.0337 27.0418 37.4087 26.1957 38.117 24.9161L45.5754 11.5225C46.3462 10.1604 45.3462 8.46812 43.7629 8.46812H12.9295L10.9712 4.34064H4.15869V8.46812H8.32536L15.8254 24.1319L13.0129 29.1674C11.492 31.9329 13.492 35.2968 16.6587 35.2968H41.6587V31.1693H16.6587L18.9504 27.0418H34.4712ZM14.9087 12.5956H40.2212L34.4712 22.9143H19.8462L14.9087 12.5956ZM16.6587 37.3605C14.367 37.3605 12.5129 39.2179 12.5129 41.488C12.5129 43.7581 14.367 45.6155 16.6587 45.6155C18.9504 45.6155 20.8254 43.7581 20.8254 41.488C20.8254 39.2179 18.9504 37.3605 16.6587 37.3605ZM37.492 37.3605C35.2004 37.3605 33.3462 39.2179 33.3462 41.488C33.3462 43.7581 35.2004 45.6155 37.492 45.6155C39.7837 45.6155 41.6587 43.7581 41.6587 41.488C41.6587 39.2179 39.7837 37.3605 37.492 37.3605Z" fill="#17241B"/>
</svg>
