<svg width="35" height="36" viewBox="0 0 35 36" fill="none" xmlns="http://www.w3.org/2000/svg">
<path d="M22.976 21.6514H21.8239L21.4156 21.2577C22.8447 19.5952 23.7052 17.4368 23.7052 15.0889C23.7052 9.85349 19.4614 5.60974 14.226 5.60974C8.99058 5.60974 4.74683 9.85349 4.74683 15.0889C4.74683 20.3243 8.99058 24.5681 14.226 24.5681C16.5739 24.5681 18.7322 23.7077 20.3947 22.2785L20.7885 22.6868V23.8389L28.0802 31.116L30.2531 28.9431L22.976 21.6514ZM14.226 21.6514C10.5947 21.6514 7.66349 18.7202 7.66349 15.0889C7.66349 11.4577 10.5947 8.52641 14.226 8.52641C17.8572 8.52641 20.7885 11.4577 20.7885 15.0889C20.7885 18.7202 17.8572 21.6514 14.226 21.6514Z" fill="#D1B722"/>
</svg>
