<svg width="50" height="50" viewBox="0 0 50 50" fill="none" xmlns="http://www.w3.org/2000/svg">
<path d="M40.484 27.0601C40.5673 26.3997 40.6298 25.7393 40.6298 25.0376C40.6298 24.3359 40.5673 23.6755 40.484 23.0152L44.8798 19.61C45.2756 19.3004 45.3798 18.7432 45.1298 18.2892L40.9631 11.1486C40.7756 10.8184 40.4215 10.6327 40.0465 10.6327C39.9215 10.6327 39.7965 10.6533 39.6923 10.6946L34.5048 12.7584C33.4215 11.9329 32.2548 11.2518 30.984 10.7359L30.1923 5.26698C30.1298 4.77168 29.6923 4.40021 29.1715 4.40021H20.8381C20.3173 4.40021 19.8798 4.77168 19.8173 5.26698L19.0256 10.7359C17.7548 11.2518 16.5881 11.9535 15.5048 12.7584L10.3173 10.6946C10.1923 10.6533 10.0673 10.6327 9.94229 10.6327C9.58813 10.6327 9.23396 10.8184 9.04646 11.1486L4.87979 18.2892C4.60896 18.7432 4.73396 19.3004 5.12979 19.61L9.52563 23.0152C9.44229 23.6755 9.37979 24.3566 9.37979 25.0376C9.37979 25.7187 9.44229 26.3997 9.52563 27.0601L5.12979 30.4653C4.73396 30.7748 4.62979 31.332 4.87979 31.7861L9.04646 38.9266C9.23396 39.2568 9.58813 39.4425 9.96313 39.4425C10.0881 39.4425 10.2131 39.4219 10.3173 39.3806L15.5048 37.3169C16.5881 38.1424 17.7548 38.8234 19.0256 39.3393L19.8173 44.8083C19.8798 45.3036 20.3173 45.675 20.8381 45.675H29.1715C29.6923 45.675 30.1298 45.3036 30.1923 44.8083L30.984 39.3393C32.2548 38.8234 33.4215 38.1217 34.5048 37.3169L39.6923 39.3806C39.8173 39.4219 39.9423 39.4425 40.0673 39.4425C40.4215 39.4425 40.7756 39.2568 40.9631 38.9266L45.1298 31.7861C45.3798 31.332 45.2756 30.7748 44.8798 30.4653L40.484 27.0601ZM36.359 23.5311C36.4423 24.1708 36.4631 24.6042 36.4631 25.0376C36.4631 25.471 36.4215 25.925 36.359 26.5441L36.0673 28.8762L37.9215 30.3208L40.1715 32.0543L38.7131 34.5515L36.0673 33.499L33.9006 32.6322L32.0256 34.0355C31.1298 34.6959 30.2756 35.1912 29.4215 35.5421L27.2131 36.4295L26.8798 38.7615L26.4631 41.5475H23.5465L22.8173 36.4295L20.609 35.5421C19.7131 35.1706 18.8798 34.6959 18.0465 34.0768L16.1506 32.6322L13.9423 33.5196L11.2965 34.5721L9.83813 32.075L12.0881 30.3414L13.9423 28.8968L13.6506 26.5648C13.5881 25.925 13.5465 25.4504 13.5465 25.0376C13.5465 24.6249 13.5881 24.1502 13.6506 23.5311L13.9423 21.1991L12.0881 19.7544L9.83813 18.0209L11.2965 15.5238L13.9423 16.5763L16.109 17.443L17.984 16.0397C18.8798 15.3793 19.734 14.884 20.5881 14.5332L22.7965 13.6458L23.1298 11.3137L23.5465 8.52769H26.4423L27.1715 13.6458L29.3798 14.5332C30.2756 14.9046 31.109 15.3793 31.9423 15.9984L33.8381 17.443L36.0465 16.5556L38.6923 15.5031L40.1506 18.0003L37.9215 19.7544L36.0673 21.1991L36.359 23.5311ZM25.0048 16.7827C20.4006 16.7827 16.6715 20.4767 16.6715 25.0376C16.6715 29.5985 20.4006 33.2926 25.0048 33.2926C29.609 33.2926 33.3381 29.5985 33.3381 25.0376C33.3381 20.4767 29.609 16.7827 25.0048 16.7827ZM25.0048 29.1651C22.7131 29.1651 20.8381 27.3077 20.8381 25.0376C20.8381 22.7675 22.7131 20.9101 25.0048 20.9101C27.2965 20.9101 29.1715 22.7675 29.1715 25.0376C29.1715 27.3077 27.2965 29.1651 25.0048 29.1651Z" fill="#CDAC01"/>
</svg>
